<?xml version="1.0" encoding="utf-8"?>
<svg width="1666" height="1024" viewBox="0 0 1666 1024" xmlns="http://www.w3.org/2000/svg">
  <g id="icomoon-ignore"/>
  <path fill="#b2a16d" d="M0 0h45.511v1024h-45.511v-1024z"/>
  <path fill="#b2a16d" d="M978.489 678.116h45.511v345.884h-45.511v-345.884z"/>
  <path fill="#b2a16d" d="M978.489 0h45.511v464.213h-45.511v-464.213z"/>
  <path fill="#b2a16d" d="M1023.983-0.017v45.511h-1024v-45.511h1024z"/>
  <path fill="#b2a16d" d="M1023.986 978.475v45.511h-1024v-45.511h1024z"/>
  <path d="M 141.165 183.257 L 169.665 183.257 L 169.665 323.957 C 169.665 336.757 168.265 347.757 165.465 356.957 C 162.665 366.157 158.665 373.707 153.465 379.607 C 148.265 385.507 142.065 389.857 134.865 392.657 C 127.665 395.457 119.665 396.857 110.865 396.857 C 101.665 396.857 93.015 395.257 84.915 392.057 C 76.815 388.857 70.065 384.657 64.665 379.457 L 78.465 357.557 C 82.465 361.757 87.265 365.257 92.865 368.057 C 98.465 370.857 104.165 372.257 109.965 372.257 C 119.565 372.257 127.165 368.857 132.765 362.057 C 138.365 355.257 141.165 343.557 141.165 326.957 L 141.165 183.257 ZM 333.46 315.257 C 333.46 307.457 332.21 300.057 329.71 293.057 C 327.21 286.057 323.71 279.957 319.21 274.757 C 314.71 269.557 309.41 265.407 303.31 262.307 C 297.21 259.207 290.56 257.657 283.36 257.657 C 267.56 257.657 255.26 262.857 246.46 273.257 C 237.66 283.657 233.26 297.457 233.26 314.657 C 233.26 322.457 234.51 329.907 237.01 337.007 C 239.51 344.107 243.01 350.307 247.51 355.607 C 252.01 360.907 257.31 365.107 263.41 368.207 C 269.51 371.307 276.16 372.857 283.36 372.857 C 291.16 372.857 298.16 371.457 304.36 368.657 C 310.56 365.857 315.81 361.907 320.11 356.807 C 324.41 351.707 327.71 345.657 330.01 338.657 C 332.31 331.657 333.46 323.857 333.46 315.257 M 205.66 315.257 C 205.66 302.657 207.66 291.307 211.66 281.207 C 215.66 271.107 221.11 262.557 228.01 255.557 C 234.91 248.557 243.11 243.157 252.61 239.357 C 262.11 235.557 272.36 233.657 283.36 233.657 C 294.16 233.657 304.31 235.557 313.81 239.357 C 323.31 243.157 331.56 248.557 338.56 255.557 C 345.56 262.557 351.06 271.057 355.06 281.057 C 359.06 291.057 361.06 302.257 361.06 314.657 C 361.06 327.057 359.11 338.307 355.21 348.407 C 351.31 358.507 345.86 367.157 338.86 374.357 C 331.86 381.557 323.61 387.107 314.11 391.007 C 304.61 394.907 294.36 396.857 283.36 396.857 C 272.16 396.857 261.81 394.857 252.31 390.857 C 242.81 386.857 234.61 381.257 227.71 374.057 C 220.81 366.857 215.41 358.257 211.51 348.257 C 207.61 338.257 205.66 327.257 205.66 315.257 ZM 481.653 263.357 C 477.853 261.757 473.353 260.957 468.153 260.957 C 462.553 260.957 457.103 262.157 451.803 264.557 C 446.503 266.957 441.803 270.557 437.703 275.357 C 433.603 280.157 430.303 286.307 427.803 293.807 C 425.303 301.307 424.053 310.157 424.053 320.357 L 424.053 393.257 L 397.053 393.257 L 397.053 237.257 L 423.153 237.257 L 423.153 271.157 C 424.953 266.357 427.353 261.657 430.353 257.057 C 433.353 252.457 436.903 248.457 441.003 245.057 C 445.103 241.657 449.853 238.907 455.253 236.807 C 460.653 234.707 466.653 233.657 473.253 233.657 C 476.253 233.657 479.203 233.807 482.103 234.107 C 485.003 234.407 487.553 234.857 489.753 235.457 L 481.653 263.357 ZM 566.849 396.857 C 557.249 396.857 548.199 394.957 539.699 391.157 C 531.199 387.357 523.799 381.957 517.499 374.957 C 511.199 367.957 506.249 359.507 502.649 349.607 C 499.049 339.707 497.249 328.557 497.249 316.157 C 497.249 304.357 499.099 293.407 502.799 283.307 C 506.499 273.207 511.499 264.507 517.799 257.207 C 524.099 249.907 531.449 244.157 539.849 239.957 C 548.249 235.757 557.149 233.657 566.549 233.657 C 576.949 233.657 585.899 235.757 593.399 239.957 C 600.899 244.157 606.749 248.457 610.949 252.857 L 610.949 171.257 L 637.949 171.257 L 637.949 355.457 C 637.949 363.057 639.799 368.007 643.499 370.307 C 647.199 372.607 651.249 373.757 655.649 373.757 L 649.949 394.757 C 630.949 394.757 619.349 387.157 615.149 371.957 C 610.549 378.357 604.349 384.107 596.549 389.207 C 588.749 394.307 578.849 396.857 566.849 396.857 M 572.849 372.857 C 580.249 372.857 587.299 371.107 593.999 367.607 C 600.699 364.107 606.349 359.557 610.949 353.957 L 610.949 276.557 C 607.149 271.757 601.899 267.307 595.199 263.207 C 588.499 259.107 580.949 257.057 572.549 257.057 C 565.349 257.057 558.799 258.557 552.899 261.557 C 546.999 264.557 541.949 268.657 537.749 273.857 C 533.549 279.057 530.349 285.207 528.149 292.307 C 525.949 299.407 524.849 307.057 524.849 315.257 C 524.849 323.657 526.049 331.357 528.449 338.357 C 530.849 345.357 534.199 351.407 538.499 356.507 C 542.799 361.607 547.899 365.607 553.799 368.507 C 559.699 371.407 566.049 372.857 572.849 372.857 ZM 678.142 316.157 C 678.142 304.557 679.942 293.707 683.542 283.607 C 687.142 273.507 692.192 264.757 698.692 257.357 C 705.192 249.957 712.992 244.157 722.092 239.957 C 731.192 235.757 741.142 233.657 751.942 233.657 C 760.942 233.657 769.092 235.207 776.392 238.307 C 783.692 241.407 790.042 245.257 795.442 249.857 L 795.442 237.257 L 820.042 237.257 L 820.042 355.457 C 820.042 363.057 821.892 368.007 825.592 370.307 C 829.292 372.607 833.342 373.757 837.742 373.757 L 832.042 394.757 C 812.842 394.757 801.242 386.957 797.242 371.357 C 794.842 374.557 792.092 377.707 788.992 380.807 C 785.892 383.907 782.342 386.657 778.342 389.057 C 774.342 391.457 769.842 393.357 764.842 394.757 C 759.842 396.157 754.342 396.857 748.342 396.857 C 738.542 396.857 729.392 394.957 720.892 391.157 C 712.392 387.357 704.992 381.957 698.692 374.957 C 692.392 367.957 687.392 359.507 683.692 349.607 C 679.992 339.707 678.142 328.557 678.142 316.157 M 754.342 372.857 C 761.942 372.857 769.142 371.057 775.942 367.457 C 782.742 363.857 788.442 359.157 793.042 353.357 L 793.042 269.657 C 787.642 265.857 781.692 262.807 775.192 260.507 C 768.692 258.207 761.842 257.057 754.642 257.057 C 747.442 257.057 740.842 258.457 734.842 261.257 C 728.842 264.057 723.692 268.007 719.392 273.107 C 715.092 278.207 711.742 284.357 709.342 291.557 C 706.942 298.757 705.742 306.657 705.742 315.257 C 705.742 323.657 706.942 331.407 709.342 338.507 C 711.742 345.607 715.142 351.707 719.542 356.807 C 723.942 361.907 729.092 365.857 734.992 368.657 C 740.892 371.457 747.342 372.857 754.342 372.857 ZM 899.835 263.357 C 905.435 254.957 912.585 247.907 921.285 242.207 C 929.985 236.507 940.335 233.657 952.335 233.657 C 969.935 233.657 983.085 238.957 991.785 249.557 C 1000.485 260.157 1004.835 274.157 1004.835 291.557 L 1004.835 393.257 L 977.835 393.257 L 977.835 294.557 C 977.835 283.157 975.235 274.107 970.035 267.407 C 964.835 260.707 957.435 257.357 947.835 257.357 C 943.235 257.357 938.735 258.207 934.335 259.907 C 929.935 261.607 925.685 263.957 921.585 266.957 C 917.485 269.957 913.685 273.457 910.185 277.457 C 906.685 281.457 903.535 285.657 900.735 290.057 L 900.735 393.257 L 873.735 393.257 L 873.735 237.257 L 899.835 237.257 L 899.835 263.357 Z" transform="matrix(1, 0, 0, 1, 0, 0)" style="fill: rgb(249, 248, 248);"/>
  <path d="M 143.523 556.962 C 150.523 556.162 159.173 555.462 169.473 554.862 C 179.773 554.262 191.723 553.962 205.323 553.962 C 231.123 553.962 250.873 558.762 264.573 568.362 C 278.273 577.962 285.123 591.162 285.123 607.962 C 285.123 619.162 282.223 628.562 276.423 636.162 C 270.623 643.762 262.023 650.062 250.623 655.062 C 264.223 659.862 274.523 666.462 281.523 674.862 C 288.523 683.262 292.023 693.762 292.023 706.362 C 292.023 725.562 284.573 740.762 269.673 751.962 C 254.773 763.162 232.923 768.762 204.123 768.762 C 191.923 768.762 180.373 768.512 169.473 768.012 C 158.573 767.512 149.923 766.762 143.523 765.762 L 143.523 556.962 M 206.223 745.062 C 224.223 745.062 238.173 741.862 248.073 735.462 C 257.973 729.062 262.923 719.762 262.923 707.562 C 262.923 695.562 258.023 686.162 248.223 679.362 C 238.423 672.562 224.423 669.162 206.223 669.162 L 172.023 669.162 L 172.023 743.262 C 182.423 744.462 193.823 745.062 206.223 745.062 M 205.023 646.962 C 220.823 646.962 233.373 643.712 242.673 637.212 C 251.973 630.712 256.623 622.162 256.623 611.562 C 256.623 600.162 252.023 591.562 242.823 585.762 C 233.623 579.962 221.023 577.062 205.023 577.062 C 198.423 577.062 192.423 577.212 187.023 577.512 C 181.623 577.812 176.623 578.162 172.023 578.562 L 172.023 646.962 L 205.023 646.962 ZM 346.616 699.462 C 348.416 714.062 353.516 725.462 361.916 733.662 C 370.316 741.862 381.416 745.962 395.216 745.962 C 404.216 745.962 412.316 745.012 419.516 743.112 C 426.716 741.212 433.616 738.762 440.216 735.762 L 446.516 758.862 C 439.316 762.262 431.216 764.962 422.216 766.962 C 413.216 768.962 403.116 769.962 391.916 769.962 C 380.716 769.962 370.616 768.112 361.616 764.412 C 352.616 760.712 344.966 755.412 338.666 748.512 C 332.366 741.612 327.516 733.112 324.116 723.012 C 320.716 712.912 319.016 701.362 319.016 688.362 C 319.016 676.762 320.716 665.962 324.116 655.962 C 327.516 645.962 332.316 637.312 338.516 630.012 C 344.716 622.712 352.116 617.012 360.716 612.912 C 369.316 608.812 378.916 606.762 389.516 606.762 C 400.716 606.762 410.516 608.662 418.916 612.462 C 427.316 616.262 434.316 621.462 439.916 628.062 C 445.516 634.662 449.716 642.362 452.516 651.162 C 455.316 659.962 456.716 669.262 456.716 679.062 C 456.716 686.062 456.416 692.862 455.816 699.462 L 346.616 699.462 M 388.916 630.162 C 377.116 630.162 367.466 634.162 359.966 642.162 C 352.466 650.162 347.916 661.962 346.316 677.562 L 431.816 677.562 C 431.816 662.362 428.016 650.662 420.416 642.462 C 412.816 634.262 402.316 630.162 388.916 630.162 ZM 518.809 636.462 C 524.409 628.062 531.559 621.012 540.259 615.312 C 548.959 609.612 559.309 606.762 571.309 606.762 C 588.909 606.762 602.059 612.062 610.759 622.662 C 619.459 633.262 623.809 647.262 623.809 664.662 L 623.809 766.362 L 596.809 766.362 L 596.809 667.662 C 596.809 656.262 594.209 647.212 589.009 640.512 C 583.809 633.812 576.409 630.462 566.809 630.462 C 562.209 630.462 557.709 631.312 553.309 633.012 C 548.909 634.712 544.659 637.062 540.559 640.062 C 536.459 643.062 532.659 646.562 529.159 650.562 C 525.659 654.562 522.509 658.762 519.709 663.162 L 519.709 766.362 L 492.709 766.362 L 492.709 610.362 L 518.809 610.362 L 518.809 636.462 ZM 696.402 636.462 C 702.003 628.062 709.152 621.012 717.852 615.312 C 726.552 609.612 736.902 606.762 748.902 606.762 C 766.503 606.762 779.652 612.062 788.352 622.662 C 797.052 633.262 801.402 647.262 801.402 664.662 L 801.402 766.362 L 774.402 766.362 L 774.402 667.662 C 774.402 656.262 771.802 647.212 766.602 640.512 C 761.402 633.812 754.003 630.462 744.402 630.462 C 739.802 630.462 735.302 631.312 730.902 633.012 C 726.503 634.712 722.253 637.062 718.152 640.062 C 714.052 643.062 710.253 646.562 706.753 650.562 C 703.253 654.562 700.102 658.762 697.302 663.162 L 697.302 766.362 L 670.302 766.362 L 670.302 610.362 L 696.402 610.362 L 696.402 636.462 ZM 864.996 699.462 C 866.796 714.062 871.896 725.462 880.296 733.662 C 888.696 741.862 899.796 745.962 913.596 745.962 C 922.596 745.962 930.696 745.012 937.896 743.112 C 945.096 741.212 951.996 738.762 958.596 735.762 L 964.896 758.862 C 957.696 762.262 949.596 764.962 940.596 766.962 C 931.596 768.962 921.496 769.962 910.296 769.962 C 899.096 769.962 888.996 768.112 879.996 764.412 C 870.996 760.712 863.346 755.412 857.046 748.512 C 850.746 741.612 845.896 733.112 842.496 723.012 C 839.096 712.912 837.396 701.362 837.396 688.362 C 837.396 676.762 839.096 665.962 842.496 655.962 C 845.896 645.962 850.696 637.312 856.896 630.012 C 863.096 622.712 870.496 617.012 879.096 612.912 C 887.696 608.812 897.296 606.762 907.896 606.762 C 919.096 606.762 928.896 608.662 937.296 612.462 C 945.696 616.262 952.696 621.462 958.296 628.062 C 963.896 634.662 968.096 642.362 970.896 651.162 C 973.696 659.962 975.096 669.262 975.096 679.062 C 975.096 686.062 974.796 692.862 974.196 699.462 L 864.996 699.462 M 907.296 630.162 C 895.496 630.162 885.846 634.162 878.346 642.162 C 870.846 650.162 866.296 661.962 864.696 677.562 L 950.196 677.562 C 950.196 662.362 946.396 650.662 938.796 642.462 C 931.196 634.262 920.696 630.162 907.296 630.162 ZM 1095.689 636.462 C 1091.889 634.862 1087.389 634.062 1082.189 634.062 C 1076.589 634.062 1071.139 635.262 1065.839 637.662 C 1060.539 640.062 1055.839 643.662 1051.739 648.462 C 1047.639 653.262 1044.339 659.412 1041.839 666.912 C 1039.339 674.412 1038.089 683.262 1038.089 693.462 L 1038.089 766.362 L 1011.089 766.362 L 1011.089 610.362 L 1037.189 610.362 L 1037.189 644.262 C 1038.989 639.462 1041.389 634.762 1044.389 630.162 C 1047.389 625.562 1050.939 621.562 1055.039 618.162 C 1059.139 614.762 1063.889 612.012 1069.289 609.912 C 1074.689 607.812 1080.689 606.762 1087.289 606.762 C 1090.289 606.762 1093.239 606.912 1096.139 607.212 C 1099.039 607.512 1101.589 607.962 1103.789 608.562 L 1095.689 636.462 Z" transform="matrix(1, 0, 0, 1, 0, 0)" style="fill: rgb(249, 248, 248); white-space: pre;"/>
</svg>