<?xml version="1.0" encoding="utf-8"?>
<svg viewBox="0 0 500 500" xmlns="http://www.w3.org/2000/svg">
  <defs>
    <style id="bx-google-fonts">@import url(https://fonts.googleapis.com/css?family=Roboto:100,300,500,700,900,100italic,300italic,400,400italic,500italic,700italic,900italic);</style>
  </defs>
  <g id="icomoon-ignore" transform="matrix(1, 0, 0, 1, -261.991455, -261.991974)"/>
  <path fill="#b2a16d" d="M -0.293 -0.292 L 21.905 -0.292 L 21.905 500.3 L -0.293 500.3 L -0.293 -0.292 Z"/>
  <path fill="#b2a16d" d="M 476.982 331.212 L 499.182 331.212 L 499.182 500.3 L 476.982 500.3 L 476.982 331.212 Z"/>
  <path fill="#b2a16d" d="M 476.967 -0.292 L 499.182 -0.292 L 499.182 331.594 L 476.967 331.594 L 476.967 -0.292 Z"/>
  <path fill="#b2a16d" d="M 499.174 -0.3 L 499.174 21.95 L -0.301 21.95 L -0.301 -0.3 L 499.174 -0.3 Z"/>
  <path fill="#b2a16d" d="M 499.175 478.045 L 499.175 500.295 L -0.3 500.295 L -0.3 478.045 L 499.175 478.045 Z"/>
  <text x="42.669" y="395.306" style="fill: rgb(255, 255, 255); font-size: 134px; white-space: pre;" transform="matrix(1.039612, 0, 0, 1.041942, -10.462617, -10.485435)">Benner</text>
  <text x="47.973" y="194.981" style="fill: rgb(255, 255, 255); font-size: 134px; white-space: pre;" transform="matrix(1.039612, 0, 0, 1.041942, -10.462617, -10.485435)">Jordan</text>
</svg>